<svg xmlns="http://www.w3.org/2000/svg" viewBox="0 0 280 240" fill="none">
  <defs>
    <linearGradient id="card" x1="40" y1="40" x2="240" y2="210" gradientUnits="userSpaceOnUse">
      <stop stop-color="#F8FAFC"/>
      <stop offset="1" stop-color="#E2E8F0"/>
    </linearGradient>
    <radialGradient id="bubble" cx="0" cy="0" r="1" gradientUnits="userSpaceOnUse" gradientTransform="translate(110 92) rotate(55) scale(86 74)">
      <stop stop-color="#FFFFFF" stop-opacity="0.95"/>
      <stop offset="0.55" stop-color="#E2E8F0" stop-opacity="0.9"/>
      <stop offset="1" stop-color="#CBD5E1" stop-opacity="0.85"/>
    </radialGradient>
    <filter id="shadow" x="-20" y="-20" width="320" height="280" color-interpolation-filters="sRGB">
      <feDropShadow dx="0" dy="10" stdDeviation="10" flood-color="#0f172a" flood-opacity="0.18"/>
    </filter>
  </defs>
  <g filter="url(#shadow)">
    <path d="M56 46h168c14.36 0 26 11.64 26 26v96c0 14.36-11.64 26-26 26H56c-14.36 0-26-11.64-26-26V72c0-14.36 11.64-26 26-26Z" fill="url(#card)"/>
    <path d="M56 46h168c14.36 0 26 11.64 26 26v96c0 14.36-11.64 26-26 26H56c-14.36 0-26-11.64-26-26V72c0-14.36 11.64-26 26-26Z" stroke="#0f172a" stroke-opacity="0.14" stroke-width="3"/>
    <g>
      <circle cx="104" cy="98" r="24" fill="url(#bubble)" stroke="#0f172a" stroke-opacity="0.12" stroke-width="2"/>
      <circle cx="176" cy="98" r="24" fill="url(#bubble)" stroke="#0f172a" stroke-opacity="0.12" stroke-width="2"/>
      <circle cx="104" cy="146" r="24" fill="url(#bubble)" stroke="#0f172a" stroke-opacity="0.12" stroke-width="2"/>
      <circle cx="176" cy="146" r="24" fill="url(#bubble)" stroke="#0f172a" stroke-opacity="0.12" stroke-width="2"/>
    </g>
    <path d="M70 186h140" stroke="#94A3B8" stroke-opacity="0.55" stroke-width="6" stroke-linecap="round"/>
    <path d="M78 72h124" stroke="#fff" stroke-opacity="0.55" stroke-width="10" stroke-linecap="round"/>
  </g>
</svg>
